<svg width="18" height="18" viewBox="0 0 18 18" fill="none" xmlns="http://www.w3.org/2000/svg">
<path d="M17.5113 0.196887C17.8664 0.442981 18.0527 0.868372 17.9859 1.29376L15.7359 15.9188C15.6832 16.2598 15.4758 16.5586 15.1734 16.7274C14.8711 16.8961 14.509 16.9172 14.1891 16.7836L9.98438 15.0363L7.57617 17.6414C7.26328 17.9824 6.77109 18.0949 6.33867 17.9262C5.90625 17.7574 5.625 17.3391 5.625 16.875V13.9359C5.625 13.7953 5.67773 13.6617 5.77266 13.5598L11.6648 7.1297C11.8687 6.90822 11.8617 6.5672 11.6508 6.35626C11.4398 6.14533 11.0988 6.13126 10.8773 6.33165L3.72656 12.6844L0.622266 11.1305C0.249609 10.9442 0.0105468 10.5715 -3.94066e-08 10.1567C-0.0105469 9.74181 0.207422 9.35509 0.566016 9.14767L16.316 0.147669C16.6922 -0.0667845 17.1562 -0.0456908 17.5113 0.196887Z" fill="#008CB4"/>
</svg>
